<?xml version="1.0" encoding="UTF-8" standalone="no"?>
<svg
   xmlns:dc="http://purl.org/dc/elements/1.1/"
   xmlns:cc="http://creativecommons.org/ns#"
   xmlns:rdf="http://www.w3.org/1999/02/22-rdf-syntax-ns#"
   xmlns:svg="http://www.w3.org/2000/svg"
   xmlns="http://www.w3.org/2000/svg"
   id="SVGRoot"
   version="1.1"
   viewBox="0 0 896.836 370"
   height="370"
   width="896.836">
  <metadata
     id="metadata1">
    <rdf:RDF>
      <cc:Work
         rdf:about="">
        <dc:format>image/svg+xml</dc:format>
        <dc:type
           rdf:resource="http://purl.org/dc/dcmitype/StillImage" />
        <dc:title></dc:title>
        <cc:license
           rdf:resource="http://creativecommons.org/licenses/by/4.0/" />
        <dc:creator>
          <cc:Agent>
            <dc:title>keeform.org</dc:title>
          </cc:Agent>
        </dc:creator>
      </cc:Work>
      <cc:License
         rdf:about="http://creativecommons.org/licenses/by/4.0/">
        <cc:permits
           rdf:resource="http://creativecommons.org/ns#Reproduction" />
        <cc:permits
           rdf:resource="http://creativecommons.org/ns#Distribution" />
        <cc:requires
           rdf:resource="http://creativecommons.org/ns#Notice" />
        <cc:requires
           rdf:resource="http://creativecommons.org/ns#Attribution" />
        <cc:permits
           rdf:resource="http://creativecommons.org/ns#DerivativeWorks" />
      </cc:License>
    </rdf:RDF>
  </metadata>
  <path
     d="M 120,10 C 59.367124,10 10,59.367124 10,120 h 20 c 0,-49.824074 40.175926,-90 90,-90 49.82407,0 90,40.175926 90,90 h 20 C 230,59.367124 180.63288,10 120,10 Z"
     id="circ1" fill="transparent"
     />
  <path
     d="m 10,130 h 220 v 20 H 10 Z"
     id="rect1" fill="#666"
     />
  <path
     d="m 10,160 h 100 v 20 H 10 Z"
     id="rect2a" fill="#666"
     />
  <path
     d="m 130,160 h 100 v 20 H 130 Z"
     id="rect2b" fill="#666"
     />
  <path
     d="m 10,190 h 100 v 20 H 10 Z"
     id="rect3a" fill="#666"
     />
  <path
     d="m 130,190 h 100 v 20 H 130 Z"
     id="rect3b" fill="#666"
     />
  <path
     d="m 10,220 h 220 v 20 H 10 Z"
     id="rect4" fill="#666"
     />
  <g
     id="text1"
     transform="translate(-3,-3)">
    <path
       d="m 272.99999,133 h 19.19667 v 46.6205 h 0.45707 L 337.75068,133 h 25.90028 l -50.42936,49.81994 53.78116,58.04709 H 340.036 l -47.38227,-54.08587 h -0.45707 v 54.08587 h -19.19667 z"
       id="lett1" fill="#666"
       />
    <path
       d="m 424.15953,196.98892 q 0,-3.50416 -1.06649,-6.7036 -0.91412,-3.19945 -3.04709,-5.63712 -2.13296,-2.43767 -5.48476,-3.80887 -3.19945,-1.52354 -7.61773,-1.52354 -8.22715,0 -14.01662,5.0277 -5.63712,4.87535 -6.24654,12.64543 z m 18.28254,8.22715 q 0,1.21883 0,2.43767 0,1.21884 -0.15235,2.43767 H 386.6803 q 0.30471,3.96122 1.98061,7.31302 1.82826,3.19945 4.72299,5.63712 2.89474,2.28532 6.55125,3.65651 3.65651,1.37119 7.61773,1.37119 6.85595,0 11.57895,-2.43767 4.72299,-2.59003 7.77008,-7.00831 l 12.18836,9.75069 Q 428.2731,243 407.70523,243 q -8.53185,0 -15.69252,-2.59003 -7.16066,-2.74238 -12.49307,-7.61773 -5.18006,-4.87534 -8.22715,-11.88365 -2.89474,-7.16067 -2.89474,-16.14959 0,-8.83656 2.89474,-15.99723 3.04709,-7.31302 8.22715,-12.34072 5.18005,-5.18005 12.18836,-7.92244 7.16067,-2.89473 15.38781,-2.89473 7.61773,0 14.01662,2.59003 6.55125,2.43767 11.27424,7.46537 4.72299,4.87535 7.31302,12.34072 2.74238,7.31302 2.74238,17.21607 z"
       id="lett2" fill="#666"
       />
    <path
       d="m 511.64437,196.98892 q 0,-3.50416 -1.06648,-6.7036 -0.91413,-3.19945 -3.04709,-5.63712 -2.13296,-2.43767 -5.48476,-3.80887 -3.19945,-1.52354 -7.61773,-1.52354 -8.22715,0 -14.01662,5.0277 -5.63712,4.87535 -6.24654,12.64543 z m 18.28255,8.22715 q 0,1.21883 0,2.43767 0,1.21884 -0.15235,2.43767 h -55.60942 q 0.30471,3.96122 1.98061,7.31302 1.82825,3.19945 4.72299,5.63712 2.89474,2.28532 6.55125,3.65651 3.65651,1.37119 7.61773,1.37119 6.85595,0 11.57894,-2.43767 4.72299,-2.59003 7.77009,-7.00831 l 12.18836,9.75069 Q 515.75795,243 495.19008,243 q -8.53186,0 -15.69252,-2.59003 -7.16066,-2.74238 -12.49307,-7.61773 -5.18006,-4.87534 -8.22715,-11.88365 -2.89474,-7.16067 -2.89474,-16.14959 0,-8.83656 2.89474,-15.99723 3.04709,-7.31302 8.22715,-12.34072 5.18005,-5.18005 12.18836,-7.92244 7.16067,-2.89473 15.38781,-2.89473 7.61773,0 14.01662,2.59003 6.55125,2.43767 11.27424,7.46537 4.72299,4.87535 7.31302,12.34072 2.74238,7.31302 2.74238,17.21607 z"
       id="lett3" fill="#666"
       />
    <path
       d="m 548.54751,133 h 69.62603 v 16.759 h -50.42936 v 29.55679 h 47.53463 v 16.14958 h -47.53463 v 45.40166 h -19.19667 z"
       id="lett4" fill="#666"
       />
    <path
       d="m 667,161.47852 c -21.87784,0 -40,17.42105 -40,39 h 15 c 0,-13.215 10.97933,-24 25,-24 14.02067,0 25,10.785 25,24 h 15 c 0,-21.57895 -18.12216,-39 -40,-39 z"
       id="lett5a" fill="#666"
       />
    <path
       id="lett5b" fill="#666"
       d="m 627,204.5 v 7.5 31.5 h 80 V 212 204.5 h -15 v 7.5 16.5 H 642 V 212 204.5 Z"
       />
    <path
       d="m 720.22252,167.73684 h 17.52078 v 12.18837 h 0.3047 q 3.0471,-6.39889 8.53186,-10.36011 5.48476,-3.96122 12.79778,-3.96122 1.06649,0 2.28532,0.15235 1.21884,0 2.13297,0.30471 v 16.759 q -1.82826,-0.45706 -3.19945,-0.60941 -1.21884,-0.15236 -2.43767,-0.15236 -6.24654,0 -10.0554,2.28532 -3.80887,2.28532 -5.94183,5.48476 -2.13297,3.19945 -2.89474,6.55125 -0.76177,3.3518 -0.76177,5.33241 v 39.15512 h -18.28255 z"
       id="lett6" fill="#666"
       />
    <path
       d="m 862.86925,165.60388 q 7.16067,0 12.18837,2.59003 5.18005,2.43767 8.3795,6.55124 3.3518,4.11358 4.87535,9.44599 1.52354,5.33241 1.52354,10.96952 v 45.70637 h -18.28255 v -40.52631 q 0,-3.19945 -0.45706,-6.7036 -0.45706,-3.50416 -1.98061,-6.24654 -1.52355,-2.89474 -4.26593,-4.72299 -2.59003,-1.82826 -7.00831,-1.82826 -4.26593,0 -7.31302,1.82826 -3.04709,1.82825 -5.0277,4.72299 -1.98061,2.89474 -2.89474,6.55125 -0.91412,3.50415 -0.91412,7.00831 v 39.91689 h -18.28255 v -44.18282 q 0,-6.85596 -3.3518,-11.27424 -3.19945,-4.57064 -10.20776,-4.57064 -4.11357,0 -7.16066,1.82826 -3.04709,1.6759 -5.0277,4.41828 -1.82826,2.74238 -2.89474,6.39889 -0.91413,3.50416 -0.91413,7.16067 v 40.2216 h -18.28255 v -73.13019 h 17.36843 v 11.7313 h 0.3047 q 1.21884,-2.74238 3.19945,-5.18005 2.13296,-2.43767 4.87535,-4.41828 2.89473,-1.98061 6.55124,-3.0471 3.65651,-1.21883 8.07479,-1.21883 8.53186,0 14.16898,3.80886 5.63712,3.80887 8.68421,10.0554 3.65651,-6.7036 9.75069,-10.20775 6.09419,-3.65651 14.32133,-3.65651 z"
       id="lett7" fill="#666"
       />
  </g>
</svg>
