<svg xmlns="http://www.w3.org/2000/svg" viewBox="0 0 1440 400" preserveAspectRatio="xMidYMid slice">
  <defs>
    <linearGradient id="bg" x1="0%" y1="0%" x2="100%" y2="100%" gradientUnits="userSpaceOnUse">
      <stop offset="0%" stop-color="#0e1d38"></stop>
      <stop offset="100%" stop-color="#0a1220"></stop>
    </linearGradient>
    <radialGradient id="glow-tl" cx="0" cy="0" r="700" gradientUnits="userSpaceOnUse">
      <stop offset="0%" stop-color="#92400e" stop-opacity="0.28"></stop>
      <stop offset="100%" stop-color="#0a1220" stop-opacity="0"></stop>
    </radialGradient>
    <linearGradient id="top-bar" x1="0%" y1="0%" x2="100%" y2="0%" gradientUnits="userSpaceOnUse">
      <stop offset="0%" stop-color="#d97706"></stop>
      <stop offset="50%" stop-color="#f59e0b"></stop>
      <stop offset="100%" stop-color="#d97706" stop-opacity="0.3"></stop>
    </linearGradient>
  </defs>
  <rect width="1440" height="400" fill="url(#bg)"></rect>
  <rect width="1440" height="400" fill="url(#glow-tl)"></rect>
  <line x1="-400" y1="400" x2="0" y2="0" stroke="#d97706" stroke-opacity="0.09" stroke-width="16"></line>
  <line x1="-368" y1="400" x2="32" y2="0" stroke="#d97706" stroke-opacity="0.09" stroke-width="16"></line>
  <line x1="-336" y1="400" x2="64" y2="0" stroke="#d97706" stroke-opacity="0.09" stroke-width="16"></line>
  <line x1="-304" y1="400" x2="96" y2="0" stroke="#d97706" stroke-opacity="0.09" stroke-width="16"></line>
  <line x1="-272" y1="400" x2="128" y2="0" stroke="#d97706" stroke-opacity="0.09" stroke-width="16"></line>
  <line x1="-240" y1="400" x2="160" y2="0" stroke="#d97706" stroke-opacity="0.09" stroke-width="16"></line>
  <line x1="-208" y1="400" x2="192" y2="0" stroke="#d97706" stroke-opacity="0.09" stroke-width="16"></line>
  <line x1="-176" y1="400" x2="224" y2="0" stroke="#d97706" stroke-opacity="0.09" stroke-width="16"></line>
  <line x1="-144" y1="400" x2="256" y2="0" stroke="#d97706" stroke-opacity="0.09" stroke-width="16"></line>
  <line x1="-112" y1="400" x2="288" y2="0" stroke="#d97706" stroke-opacity="0.09" stroke-width="16"></line>
  <line x1="-80" y1="400" x2="320" y2="0" stroke="#d97706" stroke-opacity="0.09" stroke-width="16"></line>
  <line x1="-48" y1="400" x2="352" y2="0" stroke="#d97706" stroke-opacity="0.09" stroke-width="16"></line>
  <line x1="-16" y1="400" x2="384" y2="0" stroke="#d97706" stroke-opacity="0.09" stroke-width="16"></line>
  <line x1="16" y1="400" x2="416" y2="0" stroke="#d97706" stroke-opacity="0.09" stroke-width="16"></line>
  <line x1="48" y1="400" x2="448" y2="0" stroke="#d97706" stroke-opacity="0.09" stroke-width="16"></line>
  <line x1="80" y1="400" x2="480" y2="0" stroke="#d97706" stroke-opacity="0.09" stroke-width="16"></line>
  <line x1="112" y1="400" x2="512" y2="0" stroke="#d97706" stroke-opacity="0.09" stroke-width="16"></line>
  <line x1="144" y1="400" x2="544" y2="0" stroke="#d97706" stroke-opacity="0.09" stroke-width="16"></line>
  <line x1="176" y1="400" x2="576" y2="0" stroke="#d97706" stroke-opacity="0.09" stroke-width="16"></line>
  <line x1="208" y1="400" x2="608" y2="0" stroke="#d97706" stroke-opacity="0.09" stroke-width="16"></line>
  <line x1="240" y1="400" x2="640" y2="0" stroke="#d97706" stroke-opacity="0.09" stroke-width="16"></line>
  <line x1="272" y1="400" x2="672" y2="0" stroke="#d97706" stroke-opacity="0.09" stroke-width="16"></line>
  <line x1="304" y1="400" x2="704" y2="0" stroke="#d97706" stroke-opacity="0.09" stroke-width="16"></line>
  <line x1="336" y1="400" x2="736" y2="0" stroke="#d97706" stroke-opacity="0.09" stroke-width="16"></line>
  <line x1="368" y1="400" x2="768" y2="0" stroke="#d97706" stroke-opacity="0.09" stroke-width="16"></line>
  <line x1="400" y1="400" x2="800" y2="0" stroke="#d97706" stroke-opacity="0.09" stroke-width="16"></line>
  <line x1="432" y1="400" x2="832" y2="0" stroke="#d97706" stroke-opacity="0.09" stroke-width="16"></line>
  <line x1="464" y1="400" x2="864" y2="0" stroke="#d97706" stroke-opacity="0.09" stroke-width="16"></line>
  <line x1="496" y1="400" x2="896" y2="0" stroke="#d97706" stroke-opacity="0.09" stroke-width="16"></line>
  <line x1="528" y1="400" x2="928" y2="0" stroke="#d97706" stroke-opacity="0.09" stroke-width="16"></line>
  <line x1="560" y1="400" x2="960" y2="0" stroke="#d97706" stroke-opacity="0.09" stroke-width="16"></line>
  <line x1="592" y1="400" x2="992" y2="0" stroke="#d97706" stroke-opacity="0.09" stroke-width="16"></line>
  <line x1="624" y1="400" x2="1024" y2="0" stroke="#d97706" stroke-opacity="0.09" stroke-width="16"></line>
  <line x1="656" y1="400" x2="1056" y2="0" stroke="#d97706" stroke-opacity="0.09" stroke-width="16"></line>
  <line x1="688" y1="400" x2="1088" y2="0" stroke="#d97706" stroke-opacity="0.09" stroke-width="16"></line>
  <line x1="720" y1="400" x2="1120" y2="0" stroke="#d97706" stroke-opacity="0.09" stroke-width="16"></line>
  <line x1="752" y1="400" x2="1152" y2="0" stroke="#d97706" stroke-opacity="0.09" stroke-width="16"></line>
  <line x1="784" y1="400" x2="1184" y2="0" stroke="#d97706" stroke-opacity="0.09" stroke-width="16"></line>
  <line x1="816" y1="400" x2="1216" y2="0" stroke="#d97706" stroke-opacity="0.09" stroke-width="16"></line>
  <line x1="848" y1="400" x2="1248" y2="0" stroke="#d97706" stroke-opacity="0.09" stroke-width="16"></line>
  <line x1="880" y1="400" x2="1280" y2="0" stroke="#d97706" stroke-opacity="0.09" stroke-width="16"></line>
  <line x1="912" y1="400" x2="1312" y2="0" stroke="#d97706" stroke-opacity="0.09" stroke-width="16"></line>
  <line x1="944" y1="400" x2="1344" y2="0" stroke="#d97706" stroke-opacity="0.09" stroke-width="16"></line>
  <line x1="976" y1="400" x2="1376" y2="0" stroke="#d97706" stroke-opacity="0.09" stroke-width="16"></line>
  <line x1="1008" y1="400" x2="1408" y2="0" stroke="#d97706" stroke-opacity="0.09" stroke-width="16"></line>
  <line x1="1040" y1="400" x2="1440" y2="0" stroke="#d97706" stroke-opacity="0.09" stroke-width="16"></line>
  <line x1="1072" y1="400" x2="1472" y2="0" stroke="#d97706" stroke-opacity="0.09" stroke-width="16"></line>
  <line x1="1104" y1="400" x2="1504" y2="0" stroke="#d97706" stroke-opacity="0.09" stroke-width="16"></line>
  <line x1="1136" y1="400" x2="1536" y2="0" stroke="#d97706" stroke-opacity="0.09" stroke-width="16"></line>
  <line x1="1168" y1="400" x2="1568" y2="0" stroke="#d97706" stroke-opacity="0.09" stroke-width="16"></line>
  <line x1="1200" y1="400" x2="1600" y2="0" stroke="#d97706" stroke-opacity="0.09" stroke-width="16"></line>
  <line x1="1232" y1="400" x2="1632" y2="0" stroke="#d97706" stroke-opacity="0.09" stroke-width="16"></line>
  <line x1="1264" y1="400" x2="1664" y2="0" stroke="#d97706" stroke-opacity="0.09" stroke-width="16"></line>
  <line x1="1296" y1="400" x2="1696" y2="0" stroke="#d97706" stroke-opacity="0.09" stroke-width="16"></line>
  <line x1="1328" y1="400" x2="1728" y2="0" stroke="#d97706" stroke-opacity="0.09" stroke-width="16"></line>
  <line x1="1360" y1="400" x2="1760" y2="0" stroke="#d97706" stroke-opacity="0.09" stroke-width="16"></line>
  <line x1="1392" y1="400" x2="1792" y2="0" stroke="#d97706" stroke-opacity="0.09" stroke-width="16"></line>
  <line x1="1424" y1="400" x2="1824" y2="0" stroke="#d97706" stroke-opacity="0.09" stroke-width="16"></line>
  <line x1="1456" y1="400" x2="1856" y2="0" stroke="#d97706" stroke-opacity="0.09" stroke-width="16"></line>
  <line x1="1488" y1="400" x2="1888" y2="0" stroke="#d97706" stroke-opacity="0.09" stroke-width="16"></line>
  <line x1="1520" y1="400" x2="1920" y2="0" stroke="#d97706" stroke-opacity="0.09" stroke-width="16"></line>
  <line x1="1552" y1="400" x2="1952" y2="0" stroke="#d97706" stroke-opacity="0.09" stroke-width="16"></line>
  <line x1="1584" y1="400" x2="1984" y2="0" stroke="#d97706" stroke-opacity="0.09" stroke-width="16"></line>
  <line x1="1616" y1="400" x2="2016" y2="0" stroke="#d97706" stroke-opacity="0.09" stroke-width="16"></line>
  <line x1="1648" y1="400" x2="2048" y2="0" stroke="#d97706" stroke-opacity="0.09" stroke-width="16"></line>
  <line x1="1680" y1="400" x2="2080" y2="0" stroke="#d97706" stroke-opacity="0.09" stroke-width="16"></line>
  <line x1="1712" y1="400" x2="2112" y2="0" stroke="#d97706" stroke-opacity="0.09" stroke-width="16"></line>
  <line x1="1744" y1="400" x2="2144" y2="0" stroke="#d97706" stroke-opacity="0.09" stroke-width="16"></line>
  <line x1="1776" y1="400" x2="2176" y2="0" stroke="#d97706" stroke-opacity="0.09" stroke-width="16"></line>
  <line x1="1808" y1="400" x2="2208" y2="0" stroke="#d97706" stroke-opacity="0.09" stroke-width="16"></line>
  <rect x="0" y="0" width="1440" height="4" fill="url(#top-bar)"></rect>
  
  
  
  
  <defs>
    <clipPath id="icon-clip">
      <circle cx="260" cy="200" r="90"></circle>
    </clipPath>
  </defs>
  
  <circle cx="260" cy="200" r="90" fill="#0e1a30" fill-opacity="1" clip-path="url(#icon-clip)"></circle>
  <g transform="translate(260,200)">
    <circle r="90" fill="none" stroke="#d97706" stroke-opacity="0.2" stroke-width="1.5"></circle>
    <circle r="62" fill="#d97706" fill-opacity="0.12" stroke="#d97706" stroke-opacity="0.3" stroke-width="1"></circle>
    <text x="0" y="40" font-family="Arial, Helvetica, sans-serif" font-size="110" font-weight="700" fill="#d97706" fill-opacity="0.5" text-anchor="middle">!</text>
  </g>
</svg>