<svg xmlns="http://www.w3.org/2000/svg" viewBox="0 0 1440 400" preserveAspectRatio="xMidYMid slice">
  <defs>
    <linearGradient id="bg" x1="0" y1="0" x2="1" y2="1">
      <stop offset="0%" stop-color="#0e2050"></stop>
      <stop offset="100%" stop-color="#0c1d45"></stop>
    </linearGradient>
    <radialGradient id="glow-r" cx="100%" cy="50%" r="60%">
      <stop offset="0%" stop-color="#1c62d3" stop-opacity="0.3"></stop>
      <stop offset="100%" stop-color="#0a1428" stop-opacity="0"></stop>
    </radialGradient>
    <radialGradient id="glow-t" cx="30%" cy="0%" r="50%">
      <stop offset="0%" stop-color="#1c62d3" stop-opacity="0.2"></stop>
      <stop offset="100%" stop-color="#0a1428" stop-opacity="0"></stop>
    </radialGradient>
    <linearGradient id="accent-bar" x1="0" y1="0" x2="0" y2="1">
      <stop offset="0%" stop-color="#1c62d3"></stop>
      <stop offset="70%" stop-color="#1c62d3" stop-opacity="0.4"></stop>
      <stop offset="100%" stop-color="#1c62d3" stop-opacity="0"></stop>
    </linearGradient>
    <pattern id="dots" x="0" y="0" width="28" height="28" patternUnits="userSpaceOnUse">
      <circle cx="14" cy="14" r="1" fill="#fff" fill-opacity="0.04"></circle>
    </pattern>
  </defs>
  <rect width="1440" height="400" fill="url(#bg)"></rect>
  <rect width="1440" height="400" fill="url(#glow-r)"></rect>
  <rect width="1440" height="400" fill="url(#glow-t)"></rect>
  <rect width="1440" height="400" fill="url(#dots)"></rect>
  
  
  <g transform="translate(260,200)">
    <circle r="90" fill="#1c62d3" fill-opacity="0.1" stroke="#fff" stroke-opacity="0.12" stroke-width="1.5"></circle>
    <circle r="62" fill="#1c62d3" fill-opacity="0.12" stroke="#fff" stroke-opacity="0.18" stroke-width="1"></circle>
    <text x="0" y="34" font-family="Arial, Helvetica, sans-serif" font-size="100" font-weight="700" fill="#ffffff" fill-opacity="0.18" text-anchor="middle">?</text>
  </g>
  
  <rect x="0" y="0" width="4" height="400" fill="url(#accent-bar)"></rect>
  
  <g fill="none" stroke="#1c62d3" stroke-opacity="0.06">
    <path d="M 1320 200 A 120 120 0 0 1 1200 320" stroke-width="1.5"></path>
    <path d="M 1360 160 A 180 180 0 0 1 1180 360" stroke-width="1.5"></path>
    <path d="M 1400 120 A 240 240 0 0 1 1160 400" stroke-width="1.5"></path>
  </g>
  <line x1="0" y1="399" x2="1440" y2="399" stroke="#1c62d3" stroke-opacity="0.15" stroke-width="1"></line>
  <circle cx="60" cy="370" r="2" fill="#1c62d3" fill-opacity="0.2"></circle>
  <circle cx="80" cy="370" r="2" fill="#1c62d3" fill-opacity="0.12"></circle>
  <circle cx="100" cy="370" r="2" fill="#1c62d3" fill-opacity="0.07"></circle>
</svg>